<?xml version="1.0" encoding="UTF-8"?>
<svg width="20px" height="20px" viewBox="0 0 20 20" version="1.1" xmlns="http://www.w3.org/2000/svg" xmlns:xlink="http://www.w3.org/1999/xlink">
    <!-- Generator: Sketch 54.1 (76490) - https://sketchapp.com -->
    <title>Vol</title>
    <desc>Created with Sketch.</desc>
    <g id="Page-1" stroke="none" stroke-width="1" fill="none" fill-rule="evenodd">
        <g id="Vol" fill-rule="nonzero">
            <g id="Group-2">
                <rect id="Bounds" fill-opacity="0" fill="#FFFFFF" x="0" y="0" width="20" height="20"></rect>
                <g id="Group-3" transform="translate(1.500000, 2.000000)" fill="#3C3C3C">
                    <g id="Group">
                        <path d="M0.849999977,9.54484913 C0.849999977,10.0333034 1.23759997,10.4296294 1.71529995,10.4296294 L3.39999991,10.4296294 L7.6499998,13.9061725 L7.6499998,1.73827156 L3.39999991,5.21481468 L1.71529995,5.21481468 C1.23759997,5.21481468 0.849999977,5.61114059 0.849999977,6.0995949 L0.849999977,9.54484913 Z" id="Fill"></path>
                        <g id="Icon">
                            <path d="M11.5156922,1.64455141 C11.0969716,1.427526 10.9295918,0.904510292 11.1418389,0.476363134 C11.3540861,0.0482159756 11.8655865,-0.122932014 12.2843072,0.0940933994 C15.0917397,1.54920253 16.8555141,4.48369787 16.8555141,7.82240864 C16.8555141,11.1527362 15.0881706,14.0905649 12.285757,15.5499706 C11.8674433,15.7678148 11.3556235,15.5976678 11.1425756,15.1699367 C10.9295277,14.7422055 11.0959286,14.2188633 11.5142423,14.0010191 C13.7478506,12.8378287 15.1555141,10.4978906 15.1555141,7.82240864 C15.1555141,5.13882966 13.7519324,2.80360814 11.5156922,1.64455141 Z M10.4840052,5.25503857 C10.1337721,4.93541121 10.1032564,4.38599019 10.4158466,4.02787237 C10.7284367,3.66975456 11.2657611,3.63855189 11.6159942,3.95817925 C12.7071495,4.95398197 13.3218178,6.31668648 13.3218178,7.82240864 C13.3218178,9.32813081 12.7071495,10.6908353 11.6159942,11.686638 C11.2657611,12.0062654 10.7284367,11.9750627 10.4158466,11.6169449 C10.1032564,11.2588271 10.1337721,10.7094061 10.4840052,10.3897787 C11.2187613,9.71923064 11.6218179,8.82566421 11.6218179,7.82240864 C11.6218179,6.81915307 11.2187613,5.92558665 10.4840052,5.25503857 Z M1.69999995,11.2989518 C0.768157942,11.2989518 6.03961325e-14,10.5135005 6.03961325e-14,9.5606802 L6.03961325e-14,6.08413708 C6.03961325e-14,5.13131678 0.768157942,4.34586552 1.69999995,4.34586552 L3.10183602,4.34586552 L7.11900902,1.05977716 C7.67555785,0.604514564 8.49999977,1.00968244 8.49999977,1.73845819 L8.49999977,13.9063591 C8.49999977,14.6351348 7.67555785,15.0403027 7.11900902,14.5850401 L3.10183602,11.2989518 L1.69999995,11.2989518 Z M3.93099069,5.89368232 C3.7802746,6.01696962 3.59301068,6.08413708 3.39999991,6.08413708 L1.69999995,6.08413708 L1.69999995,9.5606802 L3.39999991,9.5606802 C3.59301068,9.5606802 3.7802746,9.62784767 3.93099069,9.75113496 L6.79999982,12.0980136 L6.79999982,3.54680368 L3.93099069,5.89368232 Z" id="path-1"></path>
                        </g>
                    </g>
                </g>
            </g>
        </g>
    </g>
</svg>
