<?xml version="1.0" encoding="UTF-8"?>
<svg width="20px" height="20px" viewBox="0 0 20 20" version="1.1" xmlns="http://www.w3.org/2000/svg" xmlns:xlink="http://www.w3.org/1999/xlink">
    <!-- Generator: Sketch 54.1 (76490) - https://sketchapp.com -->
    <title>Mute</title>
    <desc>Created with Sketch.</desc>
    <g id="Page-1" stroke="none" stroke-width="1" fill="none" fill-rule="evenodd">
        <g id="Mute" fill-rule="nonzero">
            <rect id="Bounds" fill-opacity="0" fill="#FFFFFF" x="0" y="0" width="20" height="20"></rect>
            <g transform="translate(1.000000, 0.000000)" id="Group">
                <g transform="translate(-1.000000, 0.000000)">
                    <g id="Group-2" transform="translate(0.500000, -0.000000)">
                        <path d="M15.1532105,16.5457313 L13.9214471,15.3139679 C15.3225634,14.0068374 16.1555141,12.1050452 16.1555141,10.0001907 C16.1555141,7.25562124 14.7519324,4.86732651 12.5156922,3.68192758 C12.0969716,3.45996977 11.9295918,2.92506734 12.1418389,2.48718957 C12.3540861,2.04931179 12.8655865,1.87427408 13.2843072,2.09623189 C16.0917397,3.58441167 17.8555141,6.58560009 17.8555141,10.0001907 C17.8555141,12.5692922 16.8499959,14.910009 15.1532105,16.5457313 Z M13.5493188,17.7567987 C13.4625221,17.8071569 13.3746604,17.8560288 13.285757,17.903379 C12.8674433,18.1261742 12.3556235,17.9521603 12.1425756,17.514708 C11.9737786,17.1681162 12.0431741,16.7601421 12.2873323,16.4948115 L13.5493169,17.7567961 L13.5493188,17.7567987 Z M12.5862487,13.9787695 L11.3670553,12.7595761 C11.4009481,12.7118732 11.4399469,12.6670321 11.4840052,12.62591 C12.2187613,11.9401222 12.6218179,11.0262475 12.6218179,10.0001907 C12.6218179,8.97413382 12.2187613,8.06025907 11.4840052,7.37447127 C11.1337721,7.04757964 11.1032564,6.48567178 11.4158466,6.11941493 C11.7284367,5.75315807 12.2657611,5.72124625 12.6159942,6.04813787 C13.7071495,7.06657247 14.3218178,8.46024753 14.3218178,10.0001907 C14.3218178,11.5401338 13.7071495,12.9338088 12.6159942,13.9522434 C12.6062217,13.9613646 12.5963036,13.9702065 12.5862487,13.9787695 Z M2.29018306,6.49766227 L9.49999977,13.707479 L9.49999977,16.2224127 C9.49999977,16.9677515 8.67555785,17.3821278 8.11900902,16.9165183 L4.10183602,13.5557461 L2.69999995,13.5557461 C1.76815794,13.5557461 1,12.7524437 1,11.7779684 L1,8.22241293 C1,7.39544621 1.55320349,6.69175289 2.29018306,6.49766227 Z M4.61924738,6.01176817 L8.11900902,3.08386301 C8.67555785,2.61825353 9.49999977,3.03262977 9.49999977,3.7779686 L9.49999977,10.8925206 L4.61924738,6.01176817 Z" id="Combined-Shape" fill="#3C3C3C"></path>
                        <polygon id="Rectangle" fill="#3A3A3A" transform="translate(9.800485, 9.795062) rotate(45.000000) translate(-9.800485, -9.795062) " points="-2.6399915 8.7998236 22.2409609 8.7998236 22.2409609 10.7902998 -2.6399915 10.7902998"></polygon>
                    </g>
                </g>
            </g>
        </g>
    </g>
</svg>
